<mxfile host="app.diagrams.net" agent="Mozilla/5.0 (X11; Linux x86_64) AppleWebKit/537.36 (KHTML, like Gecko) Chrome/128.0.0.0 Safari/537.36" version="24.7.10">
  <diagram name="Page-1" id="30stoRD0yxdk1BHLLtkj">
    <mxGraphModel grid="1" page="1" gridSize="10" guides="1" tooltips="1" connect="1" arrows="1" fold="1" pageScale="1" pageWidth="850" pageHeight="1100" math="0" shadow="0">
      <root>
        <mxCell id="0" />
        <mxCell id="1" parent="0" />
        <mxCell id="On1Ev5cf0jR6nUO5vrYV-3" value="" style="edgeStyle=orthogonalEdgeStyle;rounded=0;orthogonalLoop=1;jettySize=auto;html=1;" edge="1" parent="1" source="On1Ev5cf0jR6nUO5vrYV-1" target="On1Ev5cf0jR6nUO5vrYV-2">
          <mxGeometry relative="1" as="geometry" />
        </mxCell>
        <mxCell id="On1Ev5cf0jR6nUO5vrYV-1" value="Start" style="ellipse;whiteSpace=wrap;html=1;" vertex="1" parent="1">
          <mxGeometry x="292" y="30" width="120" height="50" as="geometry" />
        </mxCell>
        <mxCell id="On1Ev5cf0jR6nUO5vrYV-5" value="" style="edgeStyle=orthogonalEdgeStyle;rounded=0;orthogonalLoop=1;jettySize=auto;html=1;" edge="1" parent="1" source="On1Ev5cf0jR6nUO5vrYV-2" target="On1Ev5cf0jR6nUO5vrYV-4">
          <mxGeometry relative="1" as="geometry" />
        </mxCell>
        <mxCell id="On1Ev5cf0jR6nUO5vrYV-2" value="&lt;div style=&quot;text-align: left;&quot;&gt;&lt;span style=&quot;background-color: initial;&quot;&gt;i,n, sumX, sumY, sumXY, sumXSqr, sumYSqr, r, a, b = 0&lt;/span&gt;&lt;/div&gt;&lt;div style=&quot;text-align: left;&quot;&gt;x, y = [ ]&lt;br&gt;&lt;/div&gt;" style="whiteSpace=wrap;html=1;" vertex="1" parent="1">
          <mxGeometry x="120" y="100" width="465" height="40" as="geometry" />
        </mxCell>
        <mxCell id="On1Ev5cf0jR6nUO5vrYV-7" value="" style="edgeStyle=orthogonalEdgeStyle;rounded=0;orthogonalLoop=1;jettySize=auto;html=1;" edge="1" parent="1" source="On1Ev5cf0jR6nUO5vrYV-4" target="On1Ev5cf0jR6nUO5vrYV-6">
          <mxGeometry relative="1" as="geometry" />
        </mxCell>
        <mxCell id="On1Ev5cf0jR6nUO5vrYV-4" value="Read n" style="shape=parallelogram;perimeter=parallelogramPerimeter;whiteSpace=wrap;html=1;fixedSize=1;" vertex="1" parent="1">
          <mxGeometry x="292.5" y="160" width="120" height="30" as="geometry" />
        </mxCell>
        <mxCell id="On1Ev5cf0jR6nUO5vrYV-9" value="" style="edgeStyle=orthogonalEdgeStyle;rounded=0;orthogonalLoop=1;jettySize=auto;html=1;" edge="1" parent="1" source="On1Ev5cf0jR6nUO5vrYV-6" target="On1Ev5cf0jR6nUO5vrYV-8">
          <mxGeometry relative="1" as="geometry" />
        </mxCell>
        <mxCell id="On1Ev5cf0jR6nUO5vrYV-10" value="Yes" style="edgeLabel;html=1;align=center;verticalAlign=middle;resizable=0;points=[];" connectable="0" vertex="1" parent="On1Ev5cf0jR6nUO5vrYV-9">
          <mxGeometry x="-0.2587" y="-1" relative="1" as="geometry">
            <mxPoint as="offset" />
          </mxGeometry>
        </mxCell>
        <mxCell id="On1Ev5cf0jR6nUO5vrYV-26" style="edgeStyle=orthogonalEdgeStyle;rounded=0;orthogonalLoop=1;jettySize=auto;html=1;exitX=0;exitY=0.5;exitDx=0;exitDy=0;entryX=0.5;entryY=0;entryDx=0;entryDy=0;" edge="1" parent="1" source="On1Ev5cf0jR6nUO5vrYV-6" target="On1Ev5cf0jR6nUO5vrYV-22">
          <mxGeometry relative="1" as="geometry">
            <Array as="points">
              <mxPoint x="217" y="250" />
              <mxPoint x="217" y="550" />
              <mxPoint x="353" y="550" />
            </Array>
          </mxGeometry>
        </mxCell>
        <mxCell id="On1Ev5cf0jR6nUO5vrYV-33" value="No" style="edgeLabel;html=1;align=center;verticalAlign=middle;resizable=0;points=[];" connectable="0" vertex="1" parent="On1Ev5cf0jR6nUO5vrYV-26">
          <mxGeometry x="-0.8573" relative="1" as="geometry">
            <mxPoint as="offset" />
          </mxGeometry>
        </mxCell>
        <mxCell id="On1Ev5cf0jR6nUO5vrYV-34" value="No" style="edgeLabel;html=1;align=center;verticalAlign=middle;resizable=0;points=[];" connectable="0" vertex="1" parent="On1Ev5cf0jR6nUO5vrYV-26">
          <mxGeometry x="-0.2155" y="2" relative="1" as="geometry">
            <mxPoint as="offset" />
          </mxGeometry>
        </mxCell>
        <mxCell id="On1Ev5cf0jR6nUO5vrYV-35" value="No" style="edgeLabel;html=1;align=center;verticalAlign=middle;resizable=0;points=[];" connectable="0" vertex="1" parent="On1Ev5cf0jR6nUO5vrYV-26">
          <mxGeometry x="0.5753" y="-2" relative="1" as="geometry">
            <mxPoint as="offset" />
          </mxGeometry>
        </mxCell>
        <mxCell id="On1Ev5cf0jR6nUO5vrYV-6" value="i &amp;lt; n" style="rhombus;whiteSpace=wrap;html=1;" vertex="1" parent="1">
          <mxGeometry x="312.5" y="210" width="80" height="80" as="geometry" />
        </mxCell>
        <mxCell id="On1Ev5cf0jR6nUO5vrYV-12" style="edgeStyle=orthogonalEdgeStyle;rounded=0;orthogonalLoop=1;jettySize=auto;html=1;entryX=1;entryY=0.5;entryDx=0;entryDy=0;exitX=0.5;exitY=1;exitDx=0;exitDy=0;" edge="1" parent="1" source="On1Ev5cf0jR6nUO5vrYV-14" target="On1Ev5cf0jR6nUO5vrYV-6">
          <mxGeometry relative="1" as="geometry">
            <mxPoint x="567" y="270" as="sourcePoint" />
            <Array as="points">
              <mxPoint x="353" y="510" />
              <mxPoint x="497" y="510" />
              <mxPoint x="497" y="250" />
            </Array>
          </mxGeometry>
        </mxCell>
        <mxCell id="On1Ev5cf0jR6nUO5vrYV-15" value="" style="edgeStyle=orthogonalEdgeStyle;rounded=0;orthogonalLoop=1;jettySize=auto;html=1;" edge="1" parent="1" source="On1Ev5cf0jR6nUO5vrYV-8" target="On1Ev5cf0jR6nUO5vrYV-14">
          <mxGeometry relative="1" as="geometry" />
        </mxCell>
        <mxCell id="On1Ev5cf0jR6nUO5vrYV-8" value="Read x[i]&lt;div&gt;Read y[i]&lt;br&gt;&lt;/div&gt;" style="shape=parallelogram;perimeter=parallelogramPerimeter;whiteSpace=wrap;html=1;fixedSize=1;" vertex="1" parent="1">
          <mxGeometry x="292" y="340" width="120" height="40" as="geometry" />
        </mxCell>
        <mxCell id="On1Ev5cf0jR6nUO5vrYV-14" value="&lt;div style=&quot;text-align: left;&quot;&gt;&lt;span style=&quot;background-color: initial;&quot;&gt;sumX += x[i];&lt;/span&gt;&lt;/div&gt;&lt;div style=&quot;text-align: left;&quot;&gt;sumY += y[i];&lt;/div&gt;&lt;div style=&quot;text-align: left;&quot;&gt;sumXY += x[i] * y[i];&lt;/div&gt;&lt;div style=&quot;text-align: left;&quot;&gt;sumXSqr += sqr(x&lt;span style=&quot;background-color: initial;&quot;&gt;[i]&lt;/span&gt;&lt;span style=&quot;background-color: initial;&quot;&gt;);&lt;/span&gt;&lt;/div&gt;&lt;div style=&quot;text-align: left;&quot;&gt;&lt;span style=&quot;background-color: initial;&quot;&gt;sumYSqr += sqr(y[i]);&lt;/span&gt;&lt;/div&gt;" style="whiteSpace=wrap;html=1;" vertex="1" parent="1">
          <mxGeometry x="276.5" y="400" width="152" height="80" as="geometry" />
        </mxCell>
        <mxCell id="On1Ev5cf0jR6nUO5vrYV-37" value="" style="edgeStyle=orthogonalEdgeStyle;rounded=0;orthogonalLoop=1;jettySize=auto;html=1;exitX=0.5;exitY=1;exitDx=0;exitDy=0;" edge="1" parent="1" source="On1Ev5cf0jR6nUO5vrYV-41" target="On1Ev5cf0jR6nUO5vrYV-36">
          <mxGeometry relative="1" as="geometry">
            <mxPoint x="187" y="870" as="sourcePoint" />
          </mxGeometry>
        </mxCell>
        <mxCell id="On1Ev5cf0jR6nUO5vrYV-42" value="" style="edgeStyle=orthogonalEdgeStyle;rounded=0;orthogonalLoop=1;jettySize=auto;html=1;" edge="1" parent="1" source="On1Ev5cf0jR6nUO5vrYV-22" target="On1Ev5cf0jR6nUO5vrYV-41">
          <mxGeometry relative="1" as="geometry" />
        </mxCell>
        <mxCell id="On1Ev5cf0jR6nUO5vrYV-22" value="&lt;div&gt;&lt;span style=&quot;text-align: center;&quot;&gt;&lt;span style=&quot;white-space: pre;&quot;&gt;&#x9;&lt;/span&gt;a = (n * sumXY) - (sumX * sumY);&lt;/span&gt;&lt;br&gt;&lt;/div&gt;&lt;div&gt;&lt;span style=&quot;text-align: center;&quot;&gt;&lt;br&gt;&lt;/span&gt;&lt;/div&gt;&lt;span style=&quot;white-space: pre;&quot;&gt;&#x9;&lt;/span&gt;b = ( n * sumXSqr - sqr( sumX ) ) * (n * sumYSqr - sqr( sumY ) );&lt;div&gt;&lt;br&gt;&lt;div&gt;&lt;span style=&quot;white-space: pre;&quot;&gt;&#x9;&lt;/span&gt;b = sqrt(b);&lt;/div&gt;&lt;/div&gt;&lt;div&gt;&lt;br&gt;&lt;/div&gt;&lt;div&gt;&lt;span style=&quot;white-space: pre;&quot;&gt;&#x9;&lt;/span&gt;r = a / b;&lt;br&gt;&lt;/div&gt;" style="whiteSpace=wrap;html=1;align=left;" vertex="1" parent="1">
          <mxGeometry x="157.5" y="590" width="390" height="120" as="geometry" />
        </mxCell>
        <mxCell id="On1Ev5cf0jR6nUO5vrYV-40" value="" style="edgeStyle=orthogonalEdgeStyle;rounded=0;orthogonalLoop=1;jettySize=auto;html=1;" edge="1" parent="1" source="On1Ev5cf0jR6nUO5vrYV-36" target="On1Ev5cf0jR6nUO5vrYV-39">
          <mxGeometry relative="1" as="geometry" />
        </mxCell>
        <mxCell id="On1Ev5cf0jR6nUO5vrYV-45" value="Yes" style="edgeLabel;html=1;align=center;verticalAlign=middle;resizable=0;points=[];" connectable="0" vertex="1" parent="On1Ev5cf0jR6nUO5vrYV-40">
          <mxGeometry x="-0.1009" y="2" relative="1" as="geometry">
            <mxPoint as="offset" />
          </mxGeometry>
        </mxCell>
        <mxCell id="On1Ev5cf0jR6nUO5vrYV-44" value="" style="edgeStyle=orthogonalEdgeStyle;rounded=0;orthogonalLoop=1;jettySize=auto;html=1;" edge="1" parent="1" source="On1Ev5cf0jR6nUO5vrYV-36" target="On1Ev5cf0jR6nUO5vrYV-43">
          <mxGeometry relative="1" as="geometry" />
        </mxCell>
        <mxCell id="On1Ev5cf0jR6nUO5vrYV-46" value="No" style="edgeLabel;html=1;align=center;verticalAlign=middle;resizable=0;points=[];" connectable="0" vertex="1" parent="On1Ev5cf0jR6nUO5vrYV-44">
          <mxGeometry x="-0.0182" relative="1" as="geometry">
            <mxPoint x="1" as="offset" />
          </mxGeometry>
        </mxCell>
        <mxCell id="On1Ev5cf0jR6nUO5vrYV-36" value="r == 1" style="rhombus;whiteSpace=wrap;html=1;align=center;" vertex="1" parent="1">
          <mxGeometry x="312.5" y="820" width="80" height="80" as="geometry" />
        </mxCell>
        <mxCell id="On1Ev5cf0jR6nUO5vrYV-93" style="edgeStyle=orthogonalEdgeStyle;rounded=0;orthogonalLoop=1;jettySize=auto;html=1;exitX=1;exitY=0.5;exitDx=0;exitDy=0;" edge="1" parent="1" source="On1Ev5cf0jR6nUO5vrYV-39">
          <mxGeometry relative="1" as="geometry">
            <mxPoint x="780" y="1966.6666666666667" as="targetPoint" />
          </mxGeometry>
        </mxCell>
        <mxCell id="On1Ev5cf0jR6nUO5vrYV-39" value="is a perfect positive correlation" style="shape=parallelogram;perimeter=parallelogramPerimeter;whiteSpace=wrap;html=1;fixedSize=1;align=center;" vertex="1" parent="1">
          <mxGeometry x="437" y="832.5" width="240" height="55" as="geometry" />
        </mxCell>
        <mxCell id="On1Ev5cf0jR6nUO5vrYV-41" value="&lt;span style=&quot;&quot;&gt;The correlation is { r }&lt;/span&gt;" style="shape=parallelogram;perimeter=parallelogramPerimeter;whiteSpace=wrap;html=1;fixedSize=1;align=center;" vertex="1" parent="1">
          <mxGeometry x="255" y="740" width="194.5" height="50" as="geometry" />
        </mxCell>
        <mxCell id="On1Ev5cf0jR6nUO5vrYV-49" style="edgeStyle=orthogonalEdgeStyle;rounded=0;orthogonalLoop=1;jettySize=auto;html=1;exitX=1;exitY=0.5;exitDx=0;exitDy=0;" edge="1" parent="1" source="On1Ev5cf0jR6nUO5vrYV-43" target="On1Ev5cf0jR6nUO5vrYV-47">
          <mxGeometry relative="1" as="geometry" />
        </mxCell>
        <mxCell id="On1Ev5cf0jR6nUO5vrYV-50" value="Yes" style="edgeLabel;html=1;align=center;verticalAlign=middle;resizable=0;points=[];" connectable="0" vertex="1" parent="On1Ev5cf0jR6nUO5vrYV-49">
          <mxGeometry x="-0.3043" y="2" relative="1" as="geometry">
            <mxPoint as="offset" />
          </mxGeometry>
        </mxCell>
        <mxCell id="On1Ev5cf0jR6nUO5vrYV-56" style="edgeStyle=orthogonalEdgeStyle;rounded=0;orthogonalLoop=1;jettySize=auto;html=1;exitX=0.5;exitY=1;exitDx=0;exitDy=0;" edge="1" parent="1" source="On1Ev5cf0jR6nUO5vrYV-43" target="On1Ev5cf0jR6nUO5vrYV-54">
          <mxGeometry relative="1" as="geometry" />
        </mxCell>
        <mxCell id="On1Ev5cf0jR6nUO5vrYV-43" value="r &amp;lt;= 0.9 and r &amp;gt; 0.5" style="rhombus;whiteSpace=wrap;html=1;align=center;" vertex="1" parent="1">
          <mxGeometry x="285" y="950" width="134.5" height="120" as="geometry" />
        </mxCell>
        <mxCell id="On1Ev5cf0jR6nUO5vrYV-94" style="edgeStyle=orthogonalEdgeStyle;rounded=0;orthogonalLoop=1;jettySize=auto;html=1;exitX=1;exitY=0.5;exitDx=0;exitDy=0;" edge="1" parent="1" source="On1Ev5cf0jR6nUO5vrYV-47">
          <mxGeometry relative="1" as="geometry">
            <mxPoint x="780" y="1973.3333333333333" as="targetPoint" />
          </mxGeometry>
        </mxCell>
        <mxCell id="On1Ev5cf0jR6nUO5vrYV-47" value="is a high positive correlation" style="shape=parallelogram;perimeter=parallelogramPerimeter;whiteSpace=wrap;html=1;fixedSize=1;align=center;" vertex="1" parent="1">
          <mxGeometry x="467" y="982.5" width="240" height="55" as="geometry" />
        </mxCell>
        <mxCell id="On1Ev5cf0jR6nUO5vrYV-51" value="No" style="edgeLabel;html=1;align=center;verticalAlign=middle;resizable=0;points=[];" connectable="0" vertex="1" parent="1">
          <mxGeometry x="353.25" y="1099.9999999999998" as="geometry" />
        </mxCell>
        <mxCell id="On1Ev5cf0jR6nUO5vrYV-52" style="edgeStyle=orthogonalEdgeStyle;rounded=0;orthogonalLoop=1;jettySize=auto;html=1;exitX=1;exitY=0.5;exitDx=0;exitDy=0;" edge="1" parent="1" source="On1Ev5cf0jR6nUO5vrYV-54" target="On1Ev5cf0jR6nUO5vrYV-55">
          <mxGeometry relative="1" as="geometry" />
        </mxCell>
        <mxCell id="On1Ev5cf0jR6nUO5vrYV-53" value="Yes" style="edgeLabel;html=1;align=center;verticalAlign=middle;resizable=0;points=[];" connectable="0" vertex="1" parent="On1Ev5cf0jR6nUO5vrYV-52">
          <mxGeometry x="-0.3043" y="2" relative="1" as="geometry">
            <mxPoint as="offset" />
          </mxGeometry>
        </mxCell>
        <mxCell id="On1Ev5cf0jR6nUO5vrYV-62" style="edgeStyle=orthogonalEdgeStyle;rounded=0;orthogonalLoop=1;jettySize=auto;html=1;exitX=0.5;exitY=1;exitDx=0;exitDy=0;entryX=0.5;entryY=0;entryDx=0;entryDy=0;" edge="1" parent="1" source="On1Ev5cf0jR6nUO5vrYV-54" target="On1Ev5cf0jR6nUO5vrYV-60">
          <mxGeometry relative="1" as="geometry" />
        </mxCell>
        <mxCell id="On1Ev5cf0jR6nUO5vrYV-54" value="r &amp;lt;= 0.5 and r &amp;gt; 0" style="rhombus;whiteSpace=wrap;html=1;align=center;" vertex="1" parent="1">
          <mxGeometry x="285" y="1125.25" width="134.5" height="120" as="geometry" />
        </mxCell>
        <mxCell id="On1Ev5cf0jR6nUO5vrYV-97" style="edgeStyle=orthogonalEdgeStyle;rounded=0;orthogonalLoop=1;jettySize=auto;html=1;exitX=1;exitY=0.5;exitDx=0;exitDy=0;" edge="1" parent="1" source="On1Ev5cf0jR6nUO5vrYV-55">
          <mxGeometry relative="1" as="geometry">
            <mxPoint x="780" y="2000" as="targetPoint" />
          </mxGeometry>
        </mxCell>
        <mxCell id="On1Ev5cf0jR6nUO5vrYV-55" value="is a low positive correlation" style="shape=parallelogram;perimeter=parallelogramPerimeter;whiteSpace=wrap;html=1;fixedSize=1;align=center;" vertex="1" parent="1">
          <mxGeometry x="467" y="1157.75" width="240" height="55" as="geometry" />
        </mxCell>
        <mxCell id="On1Ev5cf0jR6nUO5vrYV-57" value="No" style="edgeLabel;html=1;align=center;verticalAlign=middle;resizable=0;points=[];" connectable="0" vertex="1" parent="1">
          <mxGeometry x="353.25" y="1269.9999999999998" as="geometry" />
        </mxCell>
        <mxCell id="On1Ev5cf0jR6nUO5vrYV-58" style="edgeStyle=orthogonalEdgeStyle;rounded=0;orthogonalLoop=1;jettySize=auto;html=1;exitX=1;exitY=0.5;exitDx=0;exitDy=0;" edge="1" parent="1" source="On1Ev5cf0jR6nUO5vrYV-60" target="On1Ev5cf0jR6nUO5vrYV-61">
          <mxGeometry relative="1" as="geometry" />
        </mxCell>
        <mxCell id="On1Ev5cf0jR6nUO5vrYV-59" value="Yes" style="edgeLabel;html=1;align=center;verticalAlign=middle;resizable=0;points=[];" connectable="0" vertex="1" parent="On1Ev5cf0jR6nUO5vrYV-58">
          <mxGeometry x="-0.3043" y="2" relative="1" as="geometry">
            <mxPoint as="offset" />
          </mxGeometry>
        </mxCell>
        <mxCell id="On1Ev5cf0jR6nUO5vrYV-68" style="edgeStyle=orthogonalEdgeStyle;rounded=0;orthogonalLoop=1;jettySize=auto;html=1;exitX=0.5;exitY=1;exitDx=0;exitDy=0;entryX=0.5;entryY=0;entryDx=0;entryDy=0;" edge="1" parent="1" source="On1Ev5cf0jR6nUO5vrYV-60" target="On1Ev5cf0jR6nUO5vrYV-66">
          <mxGeometry relative="1" as="geometry" />
        </mxCell>
        <mxCell id="On1Ev5cf0jR6nUO5vrYV-60" value="r == 0" style="rhombus;whiteSpace=wrap;html=1;align=center;" vertex="1" parent="1">
          <mxGeometry x="285" y="1295.25" width="134.5" height="120" as="geometry" />
        </mxCell>
        <mxCell id="On1Ev5cf0jR6nUO5vrYV-98" style="edgeStyle=orthogonalEdgeStyle;rounded=0;orthogonalLoop=1;jettySize=auto;html=1;exitX=1;exitY=0.5;exitDx=0;exitDy=0;" edge="1" parent="1" source="On1Ev5cf0jR6nUO5vrYV-61">
          <mxGeometry relative="1" as="geometry">
            <mxPoint x="780" y="2000" as="targetPoint" />
          </mxGeometry>
        </mxCell>
        <mxCell id="On1Ev5cf0jR6nUO5vrYV-61" value="no correlation" style="shape=parallelogram;perimeter=parallelogramPerimeter;whiteSpace=wrap;html=1;fixedSize=1;align=center;" vertex="1" parent="1">
          <mxGeometry x="467" y="1327.75" width="240" height="55" as="geometry" />
        </mxCell>
        <mxCell id="On1Ev5cf0jR6nUO5vrYV-63" value="No" style="edgeLabel;html=1;align=center;verticalAlign=middle;resizable=0;points=[];" connectable="0" vertex="1" parent="1">
          <mxGeometry x="353.25" y="1449.9999999999998" as="geometry" />
        </mxCell>
        <mxCell id="On1Ev5cf0jR6nUO5vrYV-64" style="edgeStyle=orthogonalEdgeStyle;rounded=0;orthogonalLoop=1;jettySize=auto;html=1;exitX=1;exitY=0.5;exitDx=0;exitDy=0;" edge="1" parent="1" source="On1Ev5cf0jR6nUO5vrYV-66" target="On1Ev5cf0jR6nUO5vrYV-67">
          <mxGeometry relative="1" as="geometry" />
        </mxCell>
        <mxCell id="On1Ev5cf0jR6nUO5vrYV-65" value="Yes" style="edgeLabel;html=1;align=center;verticalAlign=middle;resizable=0;points=[];" connectable="0" vertex="1" parent="On1Ev5cf0jR6nUO5vrYV-64">
          <mxGeometry x="-0.3043" y="2" relative="1" as="geometry">
            <mxPoint as="offset" />
          </mxGeometry>
        </mxCell>
        <mxCell id="On1Ev5cf0jR6nUO5vrYV-76" style="edgeStyle=orthogonalEdgeStyle;rounded=0;orthogonalLoop=1;jettySize=auto;html=1;exitX=0.5;exitY=1;exitDx=0;exitDy=0;entryX=0.5;entryY=0;entryDx=0;entryDy=0;" edge="1" parent="1" source="On1Ev5cf0jR6nUO5vrYV-66" target="On1Ev5cf0jR6nUO5vrYV-74">
          <mxGeometry relative="1" as="geometry" />
        </mxCell>
        <mxCell id="On1Ev5cf0jR6nUO5vrYV-77" value="No" style="edgeLabel;html=1;align=center;verticalAlign=middle;resizable=0;points=[];" connectable="0" vertex="1" parent="On1Ev5cf0jR6nUO5vrYV-76">
          <mxGeometry x="-0.1695" y="4" relative="1" as="geometry">
            <mxPoint x="-4" as="offset" />
          </mxGeometry>
        </mxCell>
        <mxCell id="On1Ev5cf0jR6nUO5vrYV-66" value="r &amp;lt; 0 and r &amp;gt;= -0.5" style="rhombus;whiteSpace=wrap;html=1;align=center;" vertex="1" parent="1">
          <mxGeometry x="285" y="1475.25" width="134.5" height="120" as="geometry" />
        </mxCell>
        <mxCell id="On1Ev5cf0jR6nUO5vrYV-99" style="edgeStyle=orthogonalEdgeStyle;rounded=0;orthogonalLoop=1;jettySize=auto;html=1;exitX=1;exitY=0.5;exitDx=0;exitDy=0;" edge="1" parent="1" source="On1Ev5cf0jR6nUO5vrYV-67">
          <mxGeometry relative="1" as="geometry">
            <mxPoint x="780" y="2000" as="targetPoint" />
          </mxGeometry>
        </mxCell>
        <mxCell id="On1Ev5cf0jR6nUO5vrYV-67" value="is a low negative correlation" style="shape=parallelogram;perimeter=parallelogramPerimeter;whiteSpace=wrap;html=1;fixedSize=1;align=center;" vertex="1" parent="1">
          <mxGeometry x="467" y="1507.75" width="240" height="55" as="geometry" />
        </mxCell>
        <mxCell id="On1Ev5cf0jR6nUO5vrYV-72" style="edgeStyle=orthogonalEdgeStyle;rounded=0;orthogonalLoop=1;jettySize=auto;html=1;exitX=1;exitY=0.5;exitDx=0;exitDy=0;" edge="1" parent="1" source="On1Ev5cf0jR6nUO5vrYV-74" target="On1Ev5cf0jR6nUO5vrYV-75">
          <mxGeometry relative="1" as="geometry" />
        </mxCell>
        <mxCell id="On1Ev5cf0jR6nUO5vrYV-73" value="Yes" style="edgeLabel;html=1;align=center;verticalAlign=middle;resizable=0;points=[];" connectable="0" vertex="1" parent="On1Ev5cf0jR6nUO5vrYV-72">
          <mxGeometry x="-0.3043" y="2" relative="1" as="geometry">
            <mxPoint as="offset" />
          </mxGeometry>
        </mxCell>
        <mxCell id="On1Ev5cf0jR6nUO5vrYV-82" style="edgeStyle=orthogonalEdgeStyle;rounded=0;orthogonalLoop=1;jettySize=auto;html=1;exitX=0.5;exitY=1;exitDx=0;exitDy=0;entryX=0.5;entryY=0;entryDx=0;entryDy=0;" edge="1" parent="1" source="On1Ev5cf0jR6nUO5vrYV-74" target="On1Ev5cf0jR6nUO5vrYV-80">
          <mxGeometry relative="1" as="geometry" />
        </mxCell>
        <mxCell id="On1Ev5cf0jR6nUO5vrYV-83" value="No" style="edgeLabel;html=1;align=center;verticalAlign=middle;resizable=0;points=[];" connectable="0" vertex="1" parent="On1Ev5cf0jR6nUO5vrYV-82">
          <mxGeometry x="-0.08" relative="1" as="geometry">
            <mxPoint as="offset" />
          </mxGeometry>
        </mxCell>
        <mxCell id="On1Ev5cf0jR6nUO5vrYV-74" value="r &amp;lt; -0.5 and r &amp;gt;= -0.9" style="rhombus;whiteSpace=wrap;html=1;align=center;" vertex="1" parent="1">
          <mxGeometry x="285" y="1640" width="134.5" height="120" as="geometry" />
        </mxCell>
        <mxCell id="On1Ev5cf0jR6nUO5vrYV-100" style="edgeStyle=orthogonalEdgeStyle;rounded=0;orthogonalLoop=1;jettySize=auto;html=1;exitX=1;exitY=0.5;exitDx=0;exitDy=0;" edge="1" parent="1" source="On1Ev5cf0jR6nUO5vrYV-75">
          <mxGeometry relative="1" as="geometry">
            <mxPoint x="780" y="1990" as="targetPoint" />
          </mxGeometry>
        </mxCell>
        <mxCell id="On1Ev5cf0jR6nUO5vrYV-75" value="is a high negative correlation" style="shape=parallelogram;perimeter=parallelogramPerimeter;whiteSpace=wrap;html=1;fixedSize=1;align=center;" vertex="1" parent="1">
          <mxGeometry x="467" y="1672.5" width="240" height="55" as="geometry" />
        </mxCell>
        <mxCell id="On1Ev5cf0jR6nUO5vrYV-78" style="edgeStyle=orthogonalEdgeStyle;rounded=0;orthogonalLoop=1;jettySize=auto;html=1;exitX=1;exitY=0.5;exitDx=0;exitDy=0;" edge="1" parent="1" source="On1Ev5cf0jR6nUO5vrYV-80" target="On1Ev5cf0jR6nUO5vrYV-81">
          <mxGeometry relative="1" as="geometry" />
        </mxCell>
        <mxCell id="On1Ev5cf0jR6nUO5vrYV-79" value="Yes" style="edgeLabel;html=1;align=center;verticalAlign=middle;resizable=0;points=[];" connectable="0" vertex="1" parent="On1Ev5cf0jR6nUO5vrYV-78">
          <mxGeometry x="-0.3043" y="2" relative="1" as="geometry">
            <mxPoint as="offset" />
          </mxGeometry>
        </mxCell>
        <mxCell id="On1Ev5cf0jR6nUO5vrYV-89" value="" style="edgeStyle=orthogonalEdgeStyle;rounded=0;orthogonalLoop=1;jettySize=auto;html=1;" edge="1" parent="1" source="On1Ev5cf0jR6nUO5vrYV-80" target="On1Ev5cf0jR6nUO5vrYV-88">
          <mxGeometry relative="1" as="geometry" />
        </mxCell>
        <mxCell id="On1Ev5cf0jR6nUO5vrYV-90" value="No" style="edgeLabel;html=1;align=center;verticalAlign=middle;resizable=0;points=[];" connectable="0" vertex="1" parent="On1Ev5cf0jR6nUO5vrYV-89">
          <mxGeometry x="-0.0831" y="-1" relative="1" as="geometry">
            <mxPoint as="offset" />
          </mxGeometry>
        </mxCell>
        <mxCell id="On1Ev5cf0jR6nUO5vrYV-80" value="r == -1" style="rhombus;whiteSpace=wrap;html=1;align=center;" vertex="1" parent="1">
          <mxGeometry x="285" y="1810" width="134.5" height="120" as="geometry" />
        </mxCell>
        <mxCell id="On1Ev5cf0jR6nUO5vrYV-101" style="edgeStyle=orthogonalEdgeStyle;rounded=0;orthogonalLoop=1;jettySize=auto;html=1;exitX=1;exitY=0.5;exitDx=0;exitDy=0;" edge="1" parent="1" source="On1Ev5cf0jR6nUO5vrYV-81">
          <mxGeometry relative="1" as="geometry">
            <mxPoint x="780" y="2000" as="targetPoint" />
          </mxGeometry>
        </mxCell>
        <mxCell id="On1Ev5cf0jR6nUO5vrYV-81" value="is a perfect negative correlation" style="shape=parallelogram;perimeter=parallelogramPerimeter;whiteSpace=wrap;html=1;fixedSize=1;align=center;" vertex="1" parent="1">
          <mxGeometry x="467" y="1842.5" width="240" height="55" as="geometry" />
        </mxCell>
        <mxCell id="On1Ev5cf0jR6nUO5vrYV-103" style="edgeStyle=orthogonalEdgeStyle;rounded=0;orthogonalLoop=1;jettySize=auto;html=1;exitX=1;exitY=0.5;exitDx=0;exitDy=0;entryX=0;entryY=0.5;entryDx=0;entryDy=0;" edge="1" parent="1" source="On1Ev5cf0jR6nUO5vrYV-88" target="On1Ev5cf0jR6nUO5vrYV-106">
          <mxGeometry relative="1" as="geometry">
            <mxPoint x="690" y="2015" as="targetPoint" />
          </mxGeometry>
        </mxCell>
        <mxCell id="On1Ev5cf0jR6nUO5vrYV-88" value="There&#39;s a proplem in the correlation calculation" style="shape=parallelogram;perimeter=parallelogramPerimeter;whiteSpace=wrap;html=1;fixedSize=1;" vertex="1" parent="1">
          <mxGeometry x="200.87" y="2010" width="304.75" height="70" as="geometry" />
        </mxCell>
        <mxCell id="On1Ev5cf0jR6nUO5vrYV-106" value="End" style="ellipse;whiteSpace=wrap;html=1;" vertex="1" parent="1">
          <mxGeometry x="707" y="2020" width="120" height="50" as="geometry" />
        </mxCell>
      </root>
    </mxGraphModel>
  </diagram>
</mxfile>
